#Comment line ignore any data following # character 
#Hierarchical Translation and Rotation (.htr) file 
[Header]	
#Header keywords are followed by a single value 
FileType HTR		#Single word string
DataType HTRS		#Translation followed by rotation and scale data
FileVersion 1		#integer
NumSegments 64		#integer
NumFrames 3		#integer
DataFrameRate 30		#integer, data frame rate in this file
EulerRotationOrder ZYX
CalibrationUnits mm
RotationUnits Degrees
GlobalAxisofGravity Y
BoneLengthAxis Y
ScaleFactor 1.00
[SegmentNames&Hierarchy]
#CHILD	PARENT
Pinger_Root GLOBAL
Pelvis Pinger_Root
L_Hip Pelvis
R_Hip Pelvis
Rear_Leg01 Pelvis
Spine1 Pelvis
L_Leg01 L_Hip
L_Leg02 L_Leg01
L_Leg03 L_Leg02
L_Foot L_Leg03
L_Toe1_01 L_Foot
L_Toe2_01 L_Foot
L_Toe3_01 L_Foot
planeAlignerLeft L_Foot
L_Toe1_02 L_Toe1_01
L_Toe1_03 L_Toe1_02
L_Toe2_02 L_Toe2_01
L_Toe2_03 L_Toe2_02
L_Toe3_02 L_Toe3_01
L_Toe3_03 L_Toe3_02
planeLockWeightLeft planeAlignerLeft
R_Leg01 R_Hip
R_Leg02 R_Leg01
R_Leg03 R_Leg02
R_Foot R_Leg03
planeAlignerRight R_Foot
R_Toe1_01 R_Foot
R_Toe2_01 R_Foot
R_Toe3_01 R_Foot
planeLockWeightRight planeAlignerRight
R_Toe1_02 R_Toe1_01
R_Toe1_03 R_Toe1_02
R_Toe2_02 R_Toe2_01
R_Toe2_03 R_Toe2_02
R_Toe3_02 R_Toe3_01
R_Toe3_03 R_Toe3_02
Rear_Leg02 Rear_Leg01
Rear_Leg03 Rear_Leg02
Rear_Leg04 Rear_Leg03
Rear_Foot Rear_Leg04
planeAlignerCenter Rear_Foot
Rear_Toe1_01 Rear_Foot
Rear_Toe2_01 Rear_Foot
Rear_Toe3_01 Rear_Foot
planeLockWeightCenter planeAlignerCenter
Rear_Toe1_02 Rear_Toe1_01
Rear_Toe1_03 Rear_Toe1_02
Rear_Toe2_02 Rear_Toe2_01
Rear_Toe2_03 Rear_Toe2_02
Rear_Toe3_02 Rear_Toe3_01
Rear_Toe3_03 Rear_Toe3_02
Back_Bone Spine1
Head Spine1
Motor_Bone Back_Bone
Ping_Mechanism Back_Bone
BN_LookIK Head
bottomMouth Head
L_Mouth01 Head
L_mouthFront Head
mouthGun Head
R_Mouth01 Head
R_mouthFront Head
TopMouth Head
weapon_bone Head
[BasePosition]
#SegmentName Tx, Ty, Tz, Rx, Ry, Rz, BoneLength
Pinger_Root 0.000000 0.000000 0.000000 -90.000000 0.000000 0.000000 10.000000 
Pelvis 0.000000 0.000000 0.000000 0.000000 0.000000 0.000000 10.000000 
L_Hip 0.000000 0.000000 0.000000 0.000000 0.000000 0.000000 10.000000 
R_Hip 0.000000 0.000000 0.000000 0.000000 0.000000 0.000000 10.000000 
Rear_Leg01 0.000000 0.000000 0.000000 0.000000 0.000000 0.000000 10.000000 
Spine1 0.000000 0.000000 0.000000 0.000000 0.000000 0.000000 10.000000 
L_Leg01 0.000000 0.000000 0.000000 0.000000 0.000000 0.000000 10.000000 
L_Leg02 0.000000 0.000000 0.000000 0.000000 0.000000 0.000000 10.000000 
L_Leg03 0.000000 0.000000 0.000000 0.000000 0.000000 0.000000 10.000000 
L_Foot 0.000000 0.000000 0.000000 0.000000 0.000000 0.000000 10.000000 
L_Toe1_01 0.000000 0.000000 0.000000 0.000000 0.000000 0.000000 10.000000 
L_Toe2_01 0.000000 0.000000 0.000000 0.000000 0.000000 0.000000 10.000000 
L_Toe3_01 0.000000 0.000000 0.000000 0.000000 0.000000 0.000000 10.000000 
planeAlignerLeft 0.000000 0.000000 0.000000 0.000000 0.000000 0.000000 10.000000 
L_Toe1_02 0.000000 0.000000 0.000000 0.000000 0.000000 0.000000 10.000000 
L_Toe1_03 0.000000 0.000000 0.000000 0.000000 0.000000 0.000000 10.000000 
L_Toe2_02 0.000000 0.000000 0.000000 0.000000 0.000000 0.000000 10.000000 
L_Toe2_03 0.000000 0.000000 0.000000 0.000000 0.000000 0.000000 10.000000 
L_Toe3_02 0.000000 0.000000 0.000000 0.000000 0.000000 0.000000 10.000000 
L_Toe3_03 0.000000 0.000000 0.000000 0.000000 0.000000 0.000000 10.000000 
planeLockWeightLeft 0.000000 0.000000 0.000000 0.000000 0.000000 0.000000 10.000000 
R_Leg01 0.000000 0.000000 0.000000 0.000000 0.000000 0.000000 10.000000 
R_Leg02 0.000000 0.000000 0.000000 0.000000 0.000000 0.000000 10.000000 
R_Leg03 0.000000 0.000000 0.000000 0.000000 0.000000 0.000000 10.000000 
R_Foot 0.000000 0.000000 0.000000 0.000000 0.000000 0.000000 10.000000 
planeAlignerRight 0.000000 0.000000 0.000000 0.000000 0.000000 0.000000 10.000000 
R_Toe1_01 0.000000 0.000000 0.000000 0.000000 0.000000 0.000000 10.000000 
R_Toe2_01 0.000000 0.000000 0.000000 0.000000 0.000000 0.000000 10.000000 
R_Toe3_01 0.000000 0.000000 0.000000 0.000000 0.000000 0.000000 10.000000 
planeLockWeightRight 0.000000 0.000000 0.000000 0.000000 0.000000 0.000000 10.000000 
R_Toe1_02 0.000000 0.000000 0.000000 0.000000 0.000000 0.000000 10.000000 
R_Toe1_03 0.000000 0.000000 0.000000 0.000000 0.000000 0.000000 10.000000 
R_Toe2_02 0.000000 0.000000 0.000000 0.000000 0.000000 0.000000 10.000000 
R_Toe2_03 0.000000 0.000000 0.000000 0.000000 0.000000 0.000000 10.000000 
R_Toe3_02 0.000000 0.000000 0.000000 0.000000 0.000000 0.000000 10.000000 
R_Toe3_03 0.000000 0.000000 0.000000 0.000000 0.000000 0.000000 10.000000 
Rear_Leg02 0.000000 0.000000 0.000000 0.000000 0.000000 0.000000 10.000000 
Rear_Leg03 0.000000 0.000000 0.000000 0.000000 0.000000 0.000000 10.000000 
Rear_Leg04 0.000000 0.000000 0.000000 0.000000 0.000000 0.000000 10.000000 
Rear_Foot 0.000000 0.000000 0.000000 0.000000 0.000000 0.000000 10.000000 
planeAlignerCenter 0.000000 0.000000 0.000000 0.000000 0.000000 0.000000 10.000000 
Rear_Toe1_01 0.000000 0.000000 0.000000 0.000000 0.000000 0.000000 10.000000 
Rear_Toe2_01 0.000000 0.000000 0.000000 0.000000 0.000000 0.000000 10.000000 
Rear_Toe3_01 0.000000 0.000000 0.000000 0.000000 0.000000 0.000000 10.000000 
planeLockWeightCenter 0.000000 0.000000 0.000000 0.000000 0.000000 0.000000 10.000000 
Rear_Toe1_02 0.000000 0.000000 0.000000 0.000000 0.000000 0.000000 10.000000 
Rear_Toe1_03 0.000000 0.000000 0.000000 0.000000 0.000000 0.000000 10.000000 
Rear_Toe2_02 0.000000 0.000000 0.000000 0.000000 0.000000 0.000000 10.000000 
Rear_Toe2_03 0.000000 0.000000 0.000000 0.000000 0.000000 0.000000 10.000000 
Rear_Toe3_02 0.000000 0.000000 0.000000 0.000000 0.000000 0.000000 10.000000 
Rear_Toe3_03 0.000000 0.000000 0.000000 0.000000 0.000000 0.000000 10.000000 
Back_Bone 0.000000 0.000000 0.000000 0.000000 0.000000 0.000000 10.000000 
Head 0.000000 0.000000 0.000000 0.000000 0.000000 0.000000 10.000000 
Motor_Bone 0.000000 0.000000 0.000000 0.000000 0.000000 0.000000 10.000000 
Ping_Mechanism 0.000000 0.000000 0.000000 0.000000 0.000000 0.000000 10.000000 
BN_LookIK 0.000000 0.000000 0.000000 0.000000 0.000000 0.000000 10.000000 
bottomMouth 0.000000 0.000000 0.000000 0.000000 0.000000 0.000000 10.000000 
L_Mouth01 0.000000 0.000000 0.000000 0.000000 0.000000 0.000000 10.000000 
L_mouthFront 0.000000 0.000000 0.000000 0.000000 0.000000 0.000000 10.000000 
mouthGun 0.000000 0.000000 0.000000 0.000000 0.000000 0.000000 10.000000 
R_Mouth01 0.000000 0.000000 0.000000 0.000000 0.000000 0.000000 10.000000 
R_mouthFront 0.000000 0.000000 0.000000 0.000000 0.000000 0.000000 10.000000 
TopMouth 0.000000 0.000000 0.000000 0.000000 0.000000 0.000000 10.000000 
weapon_bone 0.000000 0.000000 0.000000 0.000000 0.000000 0.000000 10.000000 
#Beginning of Data. Separated by tabs
#Fr	Tx	Ty	Tz	Rx	Ry	Rz	SF
[Pinger_Root]
31 -0.000019 -2405.247803 0.000000 -0.000075 -0.000000 -0.000020 2405.247803
32 -0.000020 -2438.425293 0.000000 -0.000075 -0.000000 -0.000020 2438.425293
33 -0.000020 -2464.839355 0.000000 -0.000075 -0.000000 -0.000020 2464.839355
[Pelvis]
31 257.604156 1048.581299 4538.638184 28.797174 -77.822327 -5.334858 4665.310059
32 305.293060 1063.335815 4419.823242 20.796883 -80.720848 3.261497 4556.174316
33 345.687897 1073.168457 4323.153320 5.891825 -83.880089 18.469294 4467.756348
[L_Hip]
31 5.766392 125.831482 872.656799 -178.253311 -81.787712 87.381248 881.701050
32 5.766392 125.831482 872.656799 -178.253311 -81.787758 87.381340 881.701050
33 5.766392 125.831482 872.656799 -178.253311 -81.787758 87.381340 881.701050
[R_Hip]
31 5.765438 125.836372 -872.654907 -1.746713 81.787666 87.381149 881.699829
32 5.765438 125.836372 -872.654907 -1.746690 81.787712 87.381248 881.699829
33 5.765438 125.836372 -872.654907 -1.746690 81.787712 87.381248 881.699829
[Rear_Leg01]
31 -192.298416 -925.602966 -0.001907 158.008530 -44.331062 -149.693787 945.367432
32 -192.298416 -925.602966 -0.001907 159.045486 -46.508999 -153.679489 945.367432
33 -192.298416 -925.602966 -0.001907 160.352188 -48.629360 -157.891068 945.367432
[Spine1]
31 290.604584 5.007505 0.000477 -28.043427 2.673337 33.362167 290.647736
32 290.604584 5.007505 0.000477 -27.597830 4.744080 31.009941 290.647736
33 290.604584 5.007505 0.000477 -26.610235 7.217617 28.672382 290.647736
[L_Leg01]
31 761.932007 -0.002384 -0.069261 93.482269 -37.276661 -94.675339 761.932068
32 761.932007 -0.002384 -0.069261 92.947021 -47.097260 -91.070778 761.932068
33 761.932007 -0.002384 -0.069261 91.194122 -48.628490 -85.870399 761.932068
[L_Leg02]
31 1441.140503 -0.000954 -0.000715 -0.734332 0.148069 -102.714256 1441.140503
32 1441.140503 -0.000954 -0.000715 0.844453 -0.097700 -114.567474 1441.140503
33 1441.140503 -0.000954 -0.000715 2.241773 -0.069883 -116.741882 1441.140503
[L_Leg03]
31 1686.963989 -0.000715 -0.000954 0.002310 -0.000418 110.508911 1686.963989
32 1686.963989 -0.000715 -0.000954 -0.014038 0.006652 114.694160 1686.963989
33 1686.963989 -0.000715 -0.000954 -0.042964 0.019391 121.517014 1686.963989
[L_Foot]
31 3041.570068 -30.715107 11.297464 -13.724298 15.025480 44.536392 3041.746094
32 3041.570068 -30.715107 11.297464 -13.646987 14.600745 45.364288 3041.746094
33 3041.570068 -30.715107 11.297464 -13.034268 13.743765 41.310398 3041.746094
[L_Toe1_01]
31 -188.216690 -224.732346 -21.137953 89.191559 -3.745764 -149.613831 293.899567
32 -188.216690 -224.732346 -21.137953 88.911758 -1.796238 -149.733215 293.899567
33 -188.216690 -224.732346 -21.137953 88.430061 0.624316 -149.702698 293.899567
[L_Toe2_01]
31 200.746536 -219.926590 148.838394 -75.580757 -10.879304 -55.340378 332.896027
32 200.746536 -219.926590 148.838394 -74.880547 -9.456955 -60.015255 332.896027
33 200.746536 -219.926590 148.838394 -74.037575 -7.409487 -66.443901 332.896027
[L_Toe3_01]
31 188.832520 -219.859131 -191.078659 -108.614540 13.435148 -57.158047 347.140900
32 188.832520 -219.859131 -191.078659 -109.436279 11.647351 -61.669498 347.140900
33 188.832520 -219.859131 -191.078659 -110.432800 9.060338 -67.896660 347.140900
[planeAlignerLeft]
31 -33.218079 -737.134521 6.465928 0.000000 -89.909348 -90.081337 737.910889
32 -19.614361 -745.506653 7.756643 0.000000 -89.909348 -90.084007 745.804993
33 -5.274286 -751.779175 6.184377 0.000000 -89.907219 -90.086662 751.823181
[L_Toe1_02]
31 413.761139 0.000477 0.000000 0.001403 -23.599585 0.001403 413.761139
32 413.761139 0.000477 0.000000 0.001409 -22.831554 0.001409 413.761139
33 413.761139 0.000477 0.000000 0.001415 -22.063589 0.001415 413.761139
[L_Toe1_03]
31 464.317322 0.000358 -0.000089 0.008919 74.877380 0.008919 464.317322
32 464.317322 0.000358 -0.000089 0.011962 78.726753 0.011962 464.317322
33 464.317322 0.000358 -0.000089 0.018159 82.580399 0.018159 464.317322
[L_Toe2_02]
31 342.235809 -0.000477 0.000238 0.001181 -76.905182 0.001181 342.235809
32 342.235809 -0.000477 0.000238 0.001180 -78.116531 0.001180 342.235809
33 342.235809 -0.000477 0.000238 0.001179 -78.831680 0.001179 342.235809
[L_Toe2_03]
31 420.210846 -0.000715 0.000000 -179.994720 80.633789 -179.991211 420.210846
32 420.210846 -0.000715 0.000000 -179.997192 75.570457 -179.993668 420.210846
33 420.210846 -0.000715 0.000000 -179.998108 71.947128 -179.994568 420.210846
[L_Toe3_02]
31 329.270111 0.000954 0.000000 0.001178 -80.519211 0.001178 329.270111
32 329.270111 0.000954 0.000000 0.001177 -81.645088 0.001177 329.270111
33 329.270111 0.000954 0.000000 0.001176 -82.352760 0.001176 329.270111
[L_Toe3_03]
31 439.137451 -0.001907 0.000954 -179.996048 78.446022 -179.992538 439.137451
32 439.137451 -0.001907 0.000954 -179.997742 73.605896 -179.994202 439.137451
33 439.137451 -0.001907 0.000954 -179.998444 70.106125 -179.994904 439.137451
[planeLockWeightLeft]
31 104.002060 0.000000 -0.000286 -0.011826 -0.004376 0.005620 104.002060
32 0.001021 0.000000 -0.000267 -0.011826 -0.004376 0.005620 0.001055
33 0.000229 0.000000 -0.000272 -0.011826 -0.004376 0.005620 0.000355
[R_Leg01]
31 761.455627 -0.001907 -0.000358 125.652657 -19.414343 35.739056 761.455688
32 761.455627 -0.001907 -0.000358 130.504578 -22.581398 33.183636 761.455688
33 761.455627 -0.001907 -0.000358 134.836105 -24.045790 32.708080 761.455688
[R_Leg02]
31 1441.140625 0.000000 -0.000238 -0.342917 0.008737 -139.509644 1441.140625
32 1441.140625 0.000000 -0.000238 -0.422981 0.020871 -144.110321 1441.140625
33 1441.140625 0.000000 -0.000238 -0.473517 0.017304 -146.385300 1441.140625
[R_Leg03]
31 1686.963989 0.000954 0.001431 -0.011508 0.001747 107.262550 1686.963989
32 1686.963989 0.000954 0.001431 -0.011509 0.001739 107.182663 1686.963989
33 1686.963989 0.000954 0.001431 -0.007498 0.004724 107.948929 1686.963989
[R_Foot]
31 3041.560059 -30.531288 -11.204481 21.039364 -14.526349 67.853615 3041.734131
32 3041.560059 -30.531288 -11.204481 20.825634 -13.135124 69.279480 3041.734131
33 3041.560059 -30.531288 -11.204481 20.516777 -11.970553 69.974037 3041.734131
[planeAlignerRight]
31 -140.307053 -575.664001 -190.635208 0.000000 -89.911530 -90.062187 622.428223
32 -129.389420 -581.002441 -214.754227 0.000000 -89.903091 -90.064079 632.791321
33 -118.471779 -586.340820 -238.873215 0.000000 -89.899132 -90.065979 644.120789
[R_Toe1_01]
31 -188.383347 -224.864899 21.052242 90.944847 4.691482 -156.938904 294.101532
32 -188.383347 -224.864899 21.052242 90.950066 5.837532 -157.049469 294.101532
33 -188.383347 -224.864899 21.052242 90.953094 6.983590 -157.160172 294.101532
[R_Toe2_01]
31 200.637817 -220.002121 -148.787384 -100.965553 11.418242 -41.251102 332.857574
32 200.637817 -220.002121 -148.787384 -101.385315 12.538482 -42.027851 332.857574
33 200.637817 -220.002121 -148.787384 -101.861053 13.456967 -43.008888 332.857574
[R_Toe3_01]
31 188.606735 -220.092957 191.126343 -65.605049 -38.726147 -55.065533 347.192566
32 188.606735 -220.092957 191.126343 -66.676956 -37.501995 -53.943958 347.192566
33 188.606735 -220.092957 191.126343 -67.417747 -36.019138 -53.294777 347.192566
[planeLockWeightRight]
31 999.999695 0.000028 -0.000352 -0.011823 -0.004379 -0.000027 999.999695
32 999.999756 0.000033 -0.000354 -0.011823 -0.004379 -0.000027 999.999756
33 999.999756 0.000039 -0.000355 -0.011823 -0.004379 -0.000027 999.999756
[R_Toe1_02]
31 413.762085 0.000477 -0.000119 0.001389 -25.390831 0.001389 413.762085
32 413.762085 0.000477 -0.000119 0.001387 -25.533667 0.001387 413.762085
33 413.762085 0.000477 -0.000119 0.001386 -25.676504 0.001386 413.762085
[R_Toe1_03]
31 464.317810 0.000000 0.001088 0.002961 43.305805 0.002961 464.317810
32 464.317810 0.000000 0.001088 0.003090 45.343071 0.003090 464.317810
33 464.317810 0.000000 0.001088 0.003230 47.380966 0.003230 464.317810
[R_Toe2_02]
31 342.234741 -0.000954 0.000238 -0.002337 -77.569870 -0.002337 342.234741
32 342.234741 -0.000954 0.000238 -0.002339 -76.768593 -0.002339 342.234741
33 342.234741 -0.000954 0.000238 -0.002341 -75.967262 -0.002341 342.234741
[R_Toe2_03]
31 420.210846 0.000715 -0.000268 -179.993088 77.200226 -179.996613 420.210846
32 420.210846 0.000715 -0.000268 -179.991562 80.135246 -179.995071 420.210846
33 420.210846 0.000715 -0.000268 -179.987946 83.598808 -179.991455 420.210846
[R_Toe3_02]
31 329.270355 -0.000477 -0.000954 0.001176 -82.807724 0.001176 329.270355
32 329.270355 -0.000477 -0.000954 0.001176 -83.015373 0.001176 329.270355
33 329.270355 -0.000477 -0.000954 0.001176 -83.222977 0.001176 329.270355
[R_Toe3_03]
31 439.137939 0.000238 0.001431 -179.998932 66.790543 -179.995361 439.137939
32 439.137939 0.000238 0.001431 -179.999100 65.341034 -179.995529 439.137939
33 439.137939 0.000238 0.001431 -179.999191 64.584724 -179.995590 439.137939
[Rear_Leg02]
31 1162.777710 -0.029802 0.005960 24.170778 73.659836 -93.890160 1162.777710
32 1162.777710 -0.029802 0.005960 7.297007 73.023346 -112.845253 1162.777710
33 1162.777710 -0.029802 0.005960 -6.382318 70.686996 -128.400543 1162.777710
[Rear_Leg03]
31 607.192505 -0.013351 -0.073195 0.010159 -0.005741 75.295898 607.192505
32 607.192505 -0.013351 -0.073195 0.010117 -0.005815 76.131119 607.192505
33 607.192505 -0.013351 -0.073195 0.010074 -0.005888 76.966301 607.192505
[Rear_Leg04]
31 995.874512 -0.020504 -0.011921 -0.045835 -0.016357 84.137009 995.874573
32 995.874512 -0.020504 -0.011921 -0.042663 -0.018562 87.130699 995.874573
33 995.874512 -0.020504 -0.011921 -0.043045 -0.017660 89.543961 995.874573
[Rear_Foot]
31 3096.176270 -0.067472 -0.041425 83.123199 34.558056 -103.872017 3096.176270
32 3096.176270 -0.067472 -0.041425 84.530556 36.711956 -102.503517 3096.176270
33 3096.176270 -0.067472 -0.041425 85.858864 38.695637 -101.006294 3096.176270
[planeAlignerCenter]
31 -27.772314 101.070328 -792.636292 0.001823 -0.001485 168.341293 799.536560
32 -33.684189 105.763283 -784.087708 0.001804 -0.001507 169.762695 791.905334
33 -39.596043 110.456192 -775.539185 0.001784 -0.001529 171.183441 784.365601
[Rear_Toe1_01]
31 0.653352 83.966492 -371.173737 0.776209 28.510303 80.067413 380.553192
32 0.653352 83.966492 -371.173737 0.961957 28.194931 82.017036 380.553192
33 0.653352 83.966492 -371.173737 1.021865 27.716522 83.563843 380.553192
[Rear_Toe2_01]
31 178.200760 -294.826019 -362.060547 -4.373067 52.743355 -91.125954 499.765686
32 178.200760 -294.826019 -362.060547 -4.050698 52.265633 -89.162506 499.765686
33 178.200760 -294.826019 -362.060547 -3.758399 51.781521 -87.224403 499.765686
[Rear_Toe3_01]
31 -153.359680 -308.780914 -362.060852 -7.586745 52.490013 -135.255814 499.952881
32 -153.359680 -308.780914 -362.060852 -7.399974 52.000618 -133.580582 499.952881
33 -153.359680 -308.780914 -362.060852 -7.238315 51.508213 -131.926361 499.952881
[planeLockWeightCenter]
31 1000.000366 0.000440 -0.000070 -0.011814 -0.004373 -0.000015 1000.000366
32 1000.000366 0.000446 -0.000071 -0.011814 -0.004373 -0.000015 1000.000366
33 1000.000366 0.000452 -0.000072 -0.011814 -0.004373 -0.000015 1000.000366
[Rear_Toe1_02]
31 379.707825 0.194073 0.000477 -0.000341 -33.025932 0.006990 379.707855
32 379.707825 0.194073 0.000477 -0.000650 -33.064850 0.006686 379.707855
33 379.707825 0.194073 0.000477 -0.000959 -33.103756 0.006382 379.707855
[Rear_Toe1_03]
31 500.129700 0.165701 0.000119 -0.004119 61.233570 -0.000509 500.129761
32 500.129700 0.165701 0.000119 -0.004089 60.837471 -0.000476 500.129761
33 500.129700 0.165701 0.000119 -0.004092 60.866104 -0.000479 500.129761
[Rear_Toe2_02]
31 340.494507 0.000238 -0.000954 0.001176 -82.306801 0.001176 340.494507
32 340.494507 0.000238 -0.000954 0.001176 -83.303001 0.001176 340.494507
33 340.494507 0.000238 -0.000954 0.001175 -84.299164 0.001175 340.494507
[Rear_Toe2_03]
31 433.103577 0.000000 0.000238 179.946213 87.499626 179.946213 433.103546
32 433.103577 0.000000 0.000238 179.973389 84.945686 179.973389 433.103546
33 433.103577 0.000000 0.000238 179.981094 82.884018 179.981094 433.103546
[Rear_Toe3_02]
31 340.494141 -0.000358 -0.000477 0.001177 -80.756920 0.001177 340.494171
32 340.494141 -0.000358 -0.000477 0.001177 -81.505577 0.001177 340.494171
33 340.494141 -0.000358 -0.000477 0.001176 -82.254272 0.001176 340.494171
[Rear_Toe3_03]
31 433.103577 0.001431 -0.000238 -0.115030 89.418190 -0.111534 433.103546
32 433.103577 0.001431 -0.000238 -179.928391 89.101471 -179.924896 433.103546
33 433.103577 0.001431 -0.000238 -179.974045 87.622978 -179.970535 433.103546
[Back_Bone]
31 1312.175781 -701.934692 0.000954 -0.889938 0.611998 -86.292229 1488.125488
32 1312.175781 -701.934692 0.000954 -1.455277 1.389246 -87.399765 1488.125488
33 1312.175781 -701.934692 0.000954 -1.927890 1.940066 -87.843315 1488.125488
[Head]
31 1406.159424 809.709290 0.001431 3.281813 -2.314807 1.231935 1622.625488
32 1406.159424 809.709290 0.001431 3.455206 -2.088172 0.872783 1622.625488
33 1406.159424 809.709290 0.001431 3.627154 -1.860447 0.514359 1622.625488
[Motor_Bone]
31 1158.364380 -417.834747 0.000477 -1.440882 0.000167 -105.983208 1231.419434
32 1158.364380 -417.834747 0.000477 -1.029635 1.419330 -104.575363 1231.419434
33 1158.364380 -417.834747 0.000477 -0.583231 2.827924 -103.156067 1231.419434
[Ping_Mechanism]
31 1215.309937 -425.814453 57.780697 0.000103 -0.000053 82.120995 1289.044067
32 1219.673218 -433.022369 44.731850 0.000103 -0.000053 82.120995 1295.033691
33 1224.599487 -437.478912 27.021358 0.000103 -0.000053 82.120995 1300.677490
[BN_LookIK]
31 193.241119 1380.371704 -0.002861 0.000000 89.965736 -31.038179 1393.832153
32 193.241119 1380.371704 -0.002861 0.000000 89.965736 -31.038179 1393.832153
33 193.241119 1380.371704 -0.002861 0.000000 89.965736 -31.038179 1393.832153
[bottomMouth]
31 -435.092926 615.759399 -0.000954 -0.000022 0.000016 73.527184 753.966492
32 -435.092926 615.759399 -0.000954 -0.000022 0.000016 73.527184 753.966492
33 -435.092926 615.759399 -0.000954 -0.000022 0.000016 73.527184 753.966492
[L_Mouth01]
31 554.440979 7.658243 838.222046 150.204178 23.759130 109.605339 1005.027161
32 554.440979 7.658243 838.222046 150.204178 23.759130 109.605339 1005.027161
33 554.440979 7.658243 838.222046 150.204178 23.759130 109.605339 1005.027161
[L_mouthFront]
31 551.629089 934.514771 339.150421 0.000081 2.804060 79.119301 1136.941284
32 551.629089 934.514771 339.150421 0.000081 2.804060 79.119301 1136.941284
33 551.629089 934.514771 339.150421 0.000081 2.804060 79.119301 1136.941284
[mouthGun]
31 55.332661 1627.420898 0.000000 0.000023 0.000009 -11.038128 1628.361328
32 55.332661 1627.420898 0.000000 0.000023 0.000009 -11.038128 1628.361328
33 55.332661 1627.420898 0.000000 0.000023 0.000009 -11.038128 1628.361328
[R_Mouth01]
31 554.442383 7.659197 -838.223938 29.795891 -23.759109 109.605331 1005.029541
32 554.442383 7.659197 -838.223938 29.795891 -23.759109 109.605331 1005.029541
33 554.442383 7.659197 -838.223938 29.795891 -23.759109 109.605331 1005.029541
[R_mouthFront]
31 551.629089 934.514282 -339.151367 0.000029 -2.803930 79.119133 1136.941162
32 551.629089 934.514282 -339.151367 0.000029 -2.803930 79.119133 1136.941162
33 551.629089 934.514282 -339.151367 0.000029 -2.803930 79.119133 1136.941162
[TopMouth]
31 461.269867 -56.106091 -0.008583 -0.000059 -0.000268 92.025169 464.669525
32 461.269867 -56.106091 -0.008583 -0.000059 -0.000268 92.025169 464.669525
33 461.269867 -56.106091 -0.008583 -0.000059 -0.000268 92.025169 464.669525
[weapon_bone]
31 -987.239868 1448.372803 0.001431 0.000000 89.965736 -31.038221 1752.833740
32 -987.239868 1448.372803 0.001431 0.000000 89.965736 -31.038221 1752.833740
33 -987.239868 1448.372803 0.001431 0.000000 89.965736 -31.038221 1752.833740
